<svg width="24" height="24" viewBox="0 0 24 24" fill="none" xmlns="http://www.w3.org/2000/svg">
  <path d="M19.4004 4.11703H4.58203V17.5851H19.4004V4.11703Z" fill="white"/>
  <path fill-rule="evenodd" clip-rule="evenodd" d="M23.9918 12C23.9918 18.6187 18.6229 23.984 11.9998 23.984C5.37682 23.984 0.0078125 18.6187 0.0078125 12C0.0078125 5.3814 5.37682 0.0159607 11.9998 0.0159607C18.6229 0.0159607 23.9918 5.3814 23.9918 12ZM8.60163 16.769H6.27432C5.78528 16.769 5.54372 16.769 5.39643 16.6749C5.23734 16.5718 5.14012 16.4011 5.12834 16.2126C5.11949 16.039 5.24029 15.827 5.48186 15.403L11.2283 5.28088C11.4728 4.85105 11.5965 4.63614 11.7527 4.55665C11.9206 4.47128 12.1209 4.47128 12.2888 4.55665C12.445 4.63614 12.5687 4.85105 12.8132 5.28088L13.9946 7.34169L14.0006 7.35221C14.2647 7.81333 14.3986 8.04717 14.4571 8.29259C14.5219 8.5605 14.5219 8.84313 14.4571 9.11104C14.3982 9.35833 14.2656 9.59386 13.9975 10.062L10.979 15.3942L10.9712 15.4078C10.7054 15.8728 10.5707 16.1084 10.384 16.2862C10.1807 16.4805 9.93616 16.6218 9.66808 16.7014C9.42356 16.769 9.14959 16.769 8.60163 16.769ZM14.4789 16.769H17.8136C18.3056 16.769 18.5531 16.769 18.7005 16.672C18.8595 16.5689 18.9597 16.3952 18.9686 16.2069C18.9771 16.0388 18.8589 15.8351 18.6274 15.4358C18.6194 15.4222 18.6114 15.4083 18.6033 15.3942L16.9328 12.5386L16.9138 12.5064C16.6791 12.1097 16.5606 11.9094 16.4085 11.832C16.2406 11.7466 16.0431 11.7466 15.8753 11.832C15.7221 11.9115 15.5983 12.1205 15.3538 12.5415L13.6893 15.3972L13.6836 15.407C13.44 15.8273 13.3182 16.0374 13.327 16.2097C13.3388 16.3982 13.436 16.5718 13.5951 16.6749C13.7394 16.769 13.9869 16.769 14.4789 16.769Z" fill="#E84142"/>
</svg>
