<svg width="24" height="24" viewBox="0 0 24 24" fill="none" xmlns="http://www.w3.org/2000/svg">
  <path d="M11.999 23.7334C18.4791 23.7334 23.7323 18.4802 23.7323 12.0001C23.7323 5.51998 18.4791 0.266785 11.999 0.266785C5.51882 0.266785 0.265625 5.51998 0.265625 12.0001C0.265625 18.4802 5.51882 23.7334 11.999 23.7334Z" fill="#FF0420"/>
  <path fill-rule="evenodd" clip-rule="evenodd" d="M6.86362 14.6252C7.30981 14.954 7.88221 15.1184 8.58085 15.1184C9.42629 15.1184 10.1015 14.9217 10.6064 14.5283C11.1112 14.1291 11.4664 13.5274 11.672 12.723C11.7952 12.2299 11.9009 11.722 11.989 11.1995C12.0184 11.0116 12.0331 10.856 12.0331 10.7327C12.0331 10.3218 11.9303 9.96953 11.7248 9.67601C11.5193 9.37657 11.2375 9.15345 10.8794 9.00665C10.5212 8.85409 10.1161 8.77777 9.66413 8.77777C8.00261 8.77777 6.97222 9.58497 6.57301 11.1995C6.43212 11.7925 6.32351 12.3003 6.24715 12.723C6.21782 12.9109 6.20312 13.0694 6.20312 13.1986C6.20312 13.815 6.42329 14.2906 6.86362 14.6252ZM9.54076 13.5596C9.3118 13.7534 9.033 13.8502 8.70412 13.8502C8.1406 13.8502 7.85875 13.5802 7.85875 13.04C7.85875 12.9109 7.87048 12.7876 7.894 12.6702C7.99964 12.1007 8.10532 11.6193 8.211 11.2259C8.31084 10.8267 8.47524 10.5303 8.70412 10.3364C8.939 10.1427 9.22076 10.0459 9.54964 10.0459C10.1073 10.0459 10.3862 10.313 10.3862 10.8472C10.3862 10.9764 10.3744 11.1027 10.351 11.2259C10.2805 11.6369 10.1778 12.1183 10.0428 12.6702C9.94293 13.0695 9.77564 13.3659 9.54076 13.5596ZM12.2885 14.9684C12.3237 15.0095 12.3736 15.0301 12.4383 15.0301H13.636C13.6946 15.0301 13.7504 15.0095 13.8032 14.9684C13.856 14.9273 13.8884 14.8745 13.9001 14.8099L14.3052 12.8813H15.4941C16.2632 12.8813 16.8679 12.7199 17.3083 12.397C17.7544 12.0741 18.0509 11.5751 18.1976 10.8999C18.2329 10.7414 18.2505 10.5887 18.2505 10.4419C18.2505 9.93113 18.0509 9.54073 17.6516 9.27065C17.2583 9.00057 16.7358 8.86553 16.0841 8.86553H13.7416C13.6829 8.86553 13.6272 8.88609 13.5743 8.92721C13.5214 8.96833 13.4892 9.02113 13.4774 9.08569L12.2621 14.8099C12.2504 14.8687 12.2592 14.9215 12.2885 14.9684ZM16.1986 11.4635C16.0166 11.5985 15.8023 11.666 15.5557 11.666H14.543L14.8776 10.0897H15.9344C16.1752 10.0897 16.3454 10.1366 16.4452 10.2306C16.545 10.3187 16.5949 10.4478 16.5949 10.618C16.5949 10.6943 16.5861 10.7824 16.5685 10.8823C16.5098 11.1347 16.3864 11.3284 16.1986 11.4635Z" fill="white"/>
</svg>
