<svg width="22" height="24" viewBox="0 0 22 24" fill="none" xmlns="http://www.w3.org/2000/svg">
  <path d="M13.6136 11.0826L15.2776 8.25912L19.7627 15.2448L19.7649 16.5855L19.7503 7.36021C19.7396 7.1347 19.6199 6.92842 19.4288 6.80675L11.3539 2.16194C11.1652 2.06907 10.9255 2.07014 10.737 2.16488C10.7115 2.17758 10.6875 2.19148 10.6647 2.20665L10.6365 2.22434L2.79862 6.76634L2.76824 6.78015C2.72913 6.79812 2.68955 6.82099 2.65249 6.84754C2.50385 6.95409 2.40519 7.1117 2.37327 7.28848C2.36846 7.31527 2.36491 7.34252 2.36328 7.37011L2.3756 14.8878L6.55325 8.41262C7.07927 7.55403 8.2252 7.27747 9.28904 7.29249L10.5376 7.32544L3.1808 19.1237L4.04801 19.6229L11.4929 7.33744L14.7836 7.32549L7.35789 19.921L10.4524 21.7009L10.8221 21.9135C10.9785 21.9771 11.1629 21.9803 11.3206 21.9233L19.5089 17.178L17.9434 18.0852L13.6136 11.0826ZM14.2485 20.2265L11.123 15.3211L13.0309 12.0836L17.1356 18.5533L14.2485 20.2265Z" fill="#2D374B"/>
  <path d="M11.1211 15.3211L14.2465 20.2265L17.1337 18.5533L13.029 12.0835L11.1211 15.3211Z" fill="#28A0F0"/>
  <path d="M19.7645 16.5855L19.7624 15.2448L15.2772 8.25906L13.6133 11.0826L17.943 18.0851L19.5085 17.1779C19.6621 17.0532 19.755 16.8702 19.7647 16.6727L19.7645 16.5855Z" fill="#28A0F0"/>
  <path d="M0.96875 17.8498L3.17945 19.1237L10.5362 7.32549L9.28765 7.29254C8.22381 7.27751 7.07783 7.55408 6.55186 8.41266L2.37421 14.8879L0.96875 17.0473V17.8498Z" fill="white"/>
  <path d="M14.7824 7.3255L11.4917 7.33745L4.04688 19.6229L6.64909 21.1211L7.35675 19.921L14.7824 7.3255Z" fill="white"/>
  <path d="M21.1503 7.30855C21.1227 6.62035 20.7501 5.99036 20.1665 5.62358L11.9857 0.919029C11.4084 0.628323 10.6871 0.62795 10.1088 0.918843C10.0404 0.953332 2.15318 5.52758 2.15318 5.52758C2.04402 5.57994 1.93888 5.6423 1.83998 5.71309C1.31896 6.0865 1.00137 6.66679 0.96875 7.3043V17.0473L2.37421 14.8879L2.36194 7.37015C2.36357 7.34266 2.36702 7.31559 2.37192 7.2889C2.40371 7.11202 2.50246 6.95423 2.65115 6.84759C2.68825 6.82103 10.7102 2.17762 10.7357 2.16488C10.9242 2.07019 11.1639 2.06907 11.3526 2.16194L19.4275 6.80666C19.6186 6.92833 19.7383 7.13461 19.749 7.36012V16.6727C19.7392 16.8702 19.6611 17.0532 19.5076 17.1779L17.9421 18.0851L17.1343 18.5532L14.2472 20.2264L11.3192 21.9232C11.1615 21.9802 10.9771 21.977 10.8207 21.9134L7.35654 19.9209L6.64889 21.1211L9.76204 22.9135C9.865 22.9721 9.9567 23.024 10.032 23.0662C10.1485 23.1316 10.2279 23.1753 10.256 23.1889C10.4773 23.2964 10.7956 23.359 11.0825 23.359C11.3455 23.359 11.602 23.3106 11.8447 23.2156L20.3491 18.2905C20.8373 17.9123 21.1244 17.3419 21.1503 16.724V7.30855Z" fill="#96BEDC"/>
</svg>
