<svg width="40" height="24" viewBox="0 0 40 24" fill="none" xmlns="http://www.w3.org/2000/svg">
    <path fill-rule="evenodd" clip-rule="evenodd" d="M34.1808 22.0497C28.3642 24.2235 18.7215 23.7521 12.4654 20.8449C6.20925 17.9378 0.521881 14.533 0.521881 9.0068C0.521881 3.48059 7.03725 1.80065 10.1653 1.46017C11.7958 1.2827 13.278 1.29626 14.5402 1.3269C15.6996 1.35505 16.6728 1.37867 17.403 1.2282C17.4613 1.21619 17.5233 1.20334 17.5889 1.18973C19.2412 0.847162 23.2142 0.0234375 28.9329 0.0234375C34.7844 0.0234375 39.4804 1.17582 39.4804 7.46156L39.4902 13.983C39.4555 17.7207 38.924 20.2771 34.1808 22.0497ZM33.8706 9.63538C32.7331 10.5171 28.7364 12.773 21.8496 14.7425C13.2409 17.2044 7.86378 14.8211 6.28683 13.3282C4.70988 11.8354 4.60647 9.37347 8.17401 6.64965C11.7415 3.92583 16.3948 1.93535 22.7026 3.97821C27.7489 5.61251 32.2505 8.43061 33.8706 9.63538Z" fill="#EA8388"/>
    <path d="M34.1906 22.0399C28.374 24.2137 18.7313 23.7423 12.4752 20.8351C7.96406 18.7389 3.74865 16.3839 1.74805 13.1613C4.56719 16.7232 11.3377 18.7137 25.6078 14.7327C37.024 11.548 39.3306 6.59622 39.0569 4.51843C39.3393 5.34365 39.4902 6.31355 39.4902 7.45178L39.5 13.9732C39.4653 17.7109 38.9338 20.2673 34.1906 22.0399Z" fill="#EA8388"/>
    <path d="M23.0019 15.506C25.6172 14.8416 30.0654 13.9789 34.8252 10.8893C37.9473 8.64562 39.5168 6.29892 39.0659 4.43067C38.8613 3.5828 38.2318 2.64638 37.282 1.89295C42.4785 8.03248 25.6356 13.6993 22.0631 14.6611C18.4906 15.6229 9.69188 17.3863 4.51712 14.3634C-0.657644 11.3405 0.745372 4.0306 8.15296 2.43671C10.4884 1.9342 13.3534 1.86095 15.7494 2.18174C19.4332 2.67495 22.2543 3.84631 22.2543 3.84631C22.2543 3.84631 23.4196 3.12219 25.2278 2.45799C28.3244 1.32053 34.5752 -0.120048 37.282 1.89295C35.7449 0.673592 33.523 0.278708 31.1465 0.0763549C24.3162 -0.371777 16.8283 1.29899 16.8283 1.29899C16.8283 1.29899 10.5806 0.97655 7.41741 1.94852C3.68864 3.09426 1.34708 4.58292 0.709908 7.47935C0.0514535 9.57176 0.842283 13.765 4.51712 15.4493C8.63891 17.6635 15.551 17.399 23.0019 15.506Z" fill="white"/>
    <path fill-rule="evenodd" clip-rule="evenodd" d="M19.5428 16.2736C20.6768 16.06 21.8327 15.8031 23.0019 15.506C23.2735 15.437 23.5649 15.3659 23.8743 15.2903C26.5445 14.6384 30.5597 13.658 34.8252 10.8893C37.4538 9.00027 38.9818 7.03824 39.1301 5.35019C39.158 5.03327 39.1372 4.72599 39.0659 4.43067C38.8613 3.5828 38.2318 2.64638 37.282 1.89295C35.7449 0.673592 33.523 0.278708 31.1465 0.0763545C31.0384 0.0692621 30.9301 0.0627008 30.8217 0.0566548C24.081 -0.31931 16.8283 1.29899 16.8283 1.29899C16.8283 1.29899 16.725 1.29366 16.5382 1.28643C16.3752 1.28013 16.1488 1.27238 15.872 1.26548C14.1456 1.22242 10.4606 1.21209 8.01344 1.78829C7.80513 1.83733 7.6058 1.89063 7.41741 1.94852C5.10734 2.65834 3.32969 3.49977 2.1599 4.72603C1.5305 5.3858 1.07707 6.15698 0.811349 7.079C0.77377 7.2094 0.739945 7.34281 0.709908 7.47935C0.08177 9.47542 0.772532 13.3833 4.02773 15.2012C4.18484 15.2889 4.34792 15.3718 4.51712 15.4493C7.99213 17.3161 13.4505 17.421 19.5428 16.2736ZM16.4402 2.28343C16.2138 2.24712 15.9833 2.21306 15.7494 2.18174C13.3534 1.86095 10.4884 1.9342 8.15296 2.43671C7.96736 2.47664 7.78553 2.52017 7.60749 2.56712C5.50947 3.12039 3.93608 4.15004 2.90205 5.39865C2.39013 6.01681 2.01041 6.68863 1.76468 7.38289C1.72866 7.48465 1.69553 7.58689 1.66527 7.68952C1.65712 7.71715 1.64919 7.74481 1.64146 7.7725C0.963076 10.2029 1.89682 12.8327 4.51712 14.3634C4.6473 14.4394 4.77977 14.5125 4.9144 14.5825C4.93219 14.5918 4.95003 14.601 4.9679 14.6102C9.11043 16.7337 15.2565 16.1078 19.3525 15.2918C20.4188 15.0794 21.3462 14.8541 22.0631 14.6611C24.9832 13.8749 36.7692 9.94535 38.1389 5.18355C38.1919 4.99943 38.2293 4.81407 38.25 4.6276C38.3489 3.73655 38.0668 2.82014 37.282 1.89295C35.8661 0.839966 33.4805 0.731969 31.0838 1.03126C31.0775 1.03204 31.0712 1.03283 31.065 1.03362C30.9965 1.04224 30.928 1.05118 30.8595 1.06045C28.7494 1.34589 26.654 1.93409 25.2278 2.45799C23.4196 3.12219 22.2543 3.84631 22.2543 3.84631C22.2543 3.84631 19.7801 2.819 16.4402 2.28343ZM22.1697 2.74223C22.2926 2.67496 22.4394 2.59675 22.6084 2.51053C23.1543 2.23186 23.9347 1.86766 24.883 1.51931C25.2857 1.3714 25.739 1.21868 26.2299 1.06874C24.5479 1.15874 22.9451 1.32683 21.5576 1.51093C20.7018 1.62448 19.9316 1.74361 19.2797 1.85317C19.7939 1.98403 20.2621 2.11693 20.6742 2.24223C21.2765 2.42539 21.7616 2.59316 22.0987 2.71618C22.1232 2.7251 22.1468 2.73378 22.1697 2.74223Z" fill="white"/>
    <path fill-rule="evenodd" clip-rule="evenodd" d="M36.2595 1.21233C36.4582 1.32045 36.6493 1.43691 36.8323 1.56227C38.4571 2.58203 38.943 4.65703 37.6518 6.50622C36.5168 8.13172 34.6102 9.41559 33.8966 9.85808C32.28 8.61187 27.7884 5.6966 22.7531 4.00608C22.5845 3.94947 22.417 3.89585 22.2508 3.84516C23.0059 3.33433 23.9452 2.83642 25.1003 2.40787C29.7504 0.682621 34.3758 0.309583 36.2595 1.21233Z" fill="white"/>
</svg>
