<svg width="24" height="24" viewBox="0 0 24 24" fill="none" xmlns="http://www.w3.org/2000/svg">
  <path d="M12 0C18.6271 0 24 5.37288 24 12C24 18.6271 18.6269 24 12 24C5.37312 24 0 18.6286 0 12C0 5.37144 5.37216 0 12 0Z" fill="#594B65"/>
  <path d="M12.1816 13.5977H11.0918C11.0957 13.2227 11.1289 12.916 11.1914 12.6777C11.2578 12.4355 11.3652 12.2148 11.5137 12.0156C11.6621 11.8164 11.8594 11.5898 12.1055 11.3359C12.2852 11.1523 12.4492 10.9805 12.5977 10.8203C12.75 10.6562 12.873 10.4805 12.9668 10.293C13.0605 10.1016 13.1074 9.87305 13.1074 9.60742C13.1074 9.33789 13.0586 9.10547 12.9609 8.91016C12.8672 8.71484 12.7266 8.56445 12.5391 8.45898C12.3555 8.35352 12.127 8.30078 11.8535 8.30078C11.627 8.30078 11.4121 8.3418 11.209 8.42383C11.0059 8.50586 10.8418 8.63281 10.7168 8.80469C10.5918 8.97266 10.5273 9.19336 10.5234 9.4668H9.43945C9.44727 9.02539 9.55664 8.64648 9.76758 8.33008C9.98242 8.01367 10.2715 7.77148 10.6348 7.60352C10.998 7.43555 11.4043 7.35156 11.8535 7.35156C12.3496 7.35156 12.7715 7.44141 13.1191 7.62109C13.4707 7.80078 13.7383 8.05859 13.9219 8.39453C14.1055 8.72656 14.1973 9.12109 14.1973 9.57812C14.1973 9.92969 14.125 10.2539 13.9805 10.5508C13.8398 10.8438 13.6582 11.1191 13.4355 11.377C13.2129 11.6348 12.9766 11.8809 12.7266 12.1152C12.5117 12.3145 12.3672 12.5391 12.293 12.7891C12.2188 13.0391 12.1816 13.3086 12.1816 13.5977ZM11.0449 15.4551C11.0449 15.2793 11.0996 15.1309 11.209 15.0098C11.3184 14.8887 11.4766 14.8281 11.6836 14.8281C11.8945 14.8281 12.0547 14.8887 12.1641 15.0098C12.2734 15.1309 12.3281 15.2793 12.3281 15.4551C12.3281 15.623 12.2734 15.7676 12.1641 15.8887C12.0547 16.0098 11.8945 16.0703 11.6836 16.0703C11.4766 16.0703 11.3184 16.0098 11.209 15.8887C11.0996 15.7676 11.0449 15.623 11.0449 15.4551Z" fill="#B7A2BC"/>
</svg>
