<svg width="50" height="50" viewBox="0 0 50 50" fill="none" xmlns="http://www.w3.org/2000/svg">
<path d="M50 25C50 11.1929 38.8071 0 25 0C11.1929 0 0 11.1929 0 25C0 38.8071 11.1929 50 25 50C38.8071 50 50 38.8071 50 25Z" fill="#DAECFE"/>
<path d="M15.465 18.4503C20.7311 13.2944 29.2691 13.2944 34.5352 18.4503L35.1689 19.0708C35.4323 19.3286 35.4323 19.7466 35.1689 20.0044L33.0009 22.127C32.8692 22.2559 32.6558 22.2559 32.5241 22.127L31.652 21.2731C27.9783 17.6762 22.022 17.6762 18.3482 21.2731L17.4142 22.1876C17.2825 22.3165 17.0691 22.3165 16.9374 22.1876L14.7694 20.0649C14.5061 19.8071 14.5061 19.3892 14.7694 19.1314L15.465 18.4503ZM39.0189 22.8402L40.9484 24.7294C41.2117 24.9872 41.2117 25.4052 40.9484 25.663L32.2479 34.1817C31.9846 34.4394 31.5577 34.4394 31.2944 34.1817L25.1194 28.1357C25.0535 28.0712 24.9468 28.0712 24.881 28.1357L18.706 34.1817C18.4427 34.4394 18.0158 34.4394 17.7525 34.1817L9.05175 25.6629C8.78841 25.4051 8.78841 24.9871 9.05175 24.7293L10.9813 22.8401C11.2446 22.5823 11.6715 22.5823 11.9348 22.8401L18.11 28.8861C18.1758 28.9506 18.2825 28.9506 18.3484 28.8861L24.5232 22.8401C24.7865 22.5823 25.2134 22.5823 25.4767 22.8401L31.6519 28.8861C31.7177 28.9506 31.8245 28.9506 31.8903 28.8861L38.0654 22.8402C38.3287 22.5824 38.7555 22.5824 39.0189 22.8402Z" fill="#3B99FC"/>
</svg>
