<svg width="16" height="16" viewBox="0 0 16 16" fill="none" xmlns="http://www.w3.org/2000/svg">
<g clip-path="url(#clip0)">
<path d="M3.80753 8.29673L4.23084 5.11619L0.559082 2.56724L3.91392 3.70363L4.70622 2.48801L7.59926 0.692871L13.9762 4.20617L14.3067 9.56668L11.4657 13.5146L9.22009 13.8587L10.3814 11.7331V9.68666L9.53701 8.08847L8.67906 7.52027L7.35931 8.88077V10.3205L6.32931 11.2848L5.02088 11.4433L4.44137 11.7715L3.4906 11.4682L3.09445 10.0421L3.80753 9.03923V8.29673Z" fill="white"/>
<path d="M9.67081 2.53974C8.97132 2.39486 8.20618 2.43334 8.20618 2.43334C8.20618 2.43334 7.9549 3.59463 6.39746 3.90023C6.40878 3.90023 8.45519 4.59972 9.67081 2.53974Z" fill="#94A6C3"/>
<path d="M10.3045 13.0777C11.1489 12.4167 11.7827 11.5067 12.0747 10.4767C12.0883 10.4382 12.206 10.3703 12.2853 10.3183C12.4166 10.239 12.5501 10.1734 12.575 10.067C12.6271 9.76365 12.6542 9.44672 12.6542 9.1298C12.6542 9.01209 12.5343 8.89211 12.4166 8.7744C12.3237 8.69517 12.2309 8.60236 12.2309 8.53671C12.0996 7.33467 11.545 6.21187 10.6599 5.39466L10.5671 5.48748C11.425 6.29336 11.9797 7.389 12.0996 8.55029C12.1132 8.65669 12.2173 8.76082 12.3237 8.86721C12.4166 8.94644 12.523 9.06642 12.523 9.11848C12.523 9.42182 12.4958 9.72516 12.4437 10.0285C12.4301 10.0806 12.3124 10.1349 12.2196 10.187C12.0883 10.2526 11.9683 10.3183 11.9434 10.4247C11.6265 11.5475 10.8999 12.5254 9.93552 13.1592C10.1076 12.7902 10.6486 11.5882 10.9383 10.9793L10.8863 9.02567L9.20886 7.40258L8.2581 7.53388L7.21453 9.22488C7.21453 9.22488 7.70349 9.84514 7.01532 10.5718C6.34299 11.2849 5.81328 11.4433 5.81328 11.4433L5.32432 11.1785C5.4692 10.9928 5.76122 10.7167 5.98533 10.531C6.3679 10.2141 6.75046 10.187 6.75046 9.84514C6.76631 9.1298 5.99891 9.32675 5.99891 9.32675L5.72047 9.5916L5.60276 10.5695L5.02325 11.2962L4.9576 11.2826L4.00684 11.0721C4.00684 11.0721 4.58861 10.7687 4.68142 10.4247C4.77424 10.0941 4.4958 8.99851 4.48222 8.93286C4.4958 8.94644 4.76065 9.17055 4.87837 9.53954C5.08889 8.95776 5.36733 8.40315 5.44656 8.35108C5.52579 8.29902 6.59427 7.73082 6.59427 7.73082L6.23886 8.668L6.50372 8.52313L7.13756 6.96569C7.13756 6.96569 7.75782 6.66235 8.21962 6.66235C9.0504 6.64876 10.2796 5.63235 9.72499 3.81006C9.88345 3.87571 12.6293 5.24979 13.1047 7.94361C13.4601 10.0149 12.2853 11.9549 10.3045 13.0777Z" fill="#94A6C3"/>
<path d="M7.1623 2.82945C7.46564 2.47178 7.34793 1.94434 7.34793 1.94434L6.46281 3.25277C6.44923 3.25277 6.77747 3.26635 7.1623 2.82945Z" fill="#1B314F"/>
<path d="M4.19006 9.97375L4.29646 9.44629C4.29646 9.44629 3.85956 10.2114 3.82108 10.3178C3.78033 10.4378 3.84824 10.6484 4.01802 10.6348C4.19006 10.6212 4.40059 10.3699 4.40059 10.1865C4.40059 9.94885 4.19006 9.97375 4.19006 9.97375Z" fill="#1B314F"/>
<path d="M12.0337 1.57578C12.0337 1.57578 12.6948 1.60295 13.3807 1.68218C11.8345 0.466556 10.3699 0.111152 9.18145 0.111152C7.54478 0.111152 6.43556 0.785741 6.36764 0.824225L6.88377 0.00475647C6.88377 0.00475647 4.82379 -0.194451 4.09713 1.98551C3.9115 1.52372 3.74173 0.849126 3.74173 0.849126C3.74173 0.849126 2.67098 1.78857 3.17353 3.34601C1.94433 2.8978 0.189943 2.27527 0.122031 2.26395C0.0292182 2.25037 0.00205353 2.29112 0.00205353 2.29112C0.00205353 2.29112 -0.0251112 2.3296 0.0541192 2.39751C0.201261 2.51296 2.97432 4.56163 3.58326 4.95778C3.45197 5.43317 3.45197 5.65728 3.58326 5.88138C3.76889 6.18472 3.78021 6.34318 3.75531 6.56729C3.72814 6.7914 3.49045 8.73368 3.43839 8.97137C3.38632 9.20906 2.83171 10.0534 2.85661 10.3047C2.88377 10.556 3.2256 11.6245 3.5312 11.7444C3.75531 11.8237 4.30992 11.9957 4.67891 11.9957C4.8102 11.9957 4.93018 11.9685 4.98225 11.9165C5.20635 11.7195 5.272 11.6788 5.43046 11.6788C5.44405 11.6788 5.45763 11.6788 5.46895 11.6788C5.53459 11.6788 5.61382 11.6924 5.70664 11.6924C5.91716 11.6924 6.1956 11.6516 6.39255 11.4683C6.6823 11.1785 7.18485 10.7823 7.34331 10.5967C7.54252 10.3454 7.64665 10.0036 7.59458 9.65954C7.55384 9.34262 7.72588 9.06418 7.92509 8.78801C8.17636 8.4575 8.63816 7.86441 8.63816 7.86441C9.55044 8.54805 10.1186 9.59163 10.1186 10.7529C10.1186 12.8129 8.3235 14.4767 6.10505 14.4767C5.76097 14.4767 5.43273 14.4383 5.10222 14.359C6.11864 14.7144 6.97659 14.8344 7.67834 14.8344C9.17014 14.8344 9.96244 14.2934 9.96244 14.2934C9.96244 14.2934 9.68626 14.6511 9.23578 15.0585C9.24937 15.0585 9.24937 15.0585 9.24937 15.0585C11.7191 14.7144 12.9211 12.6816 12.9211 12.6816C12.9211 12.6816 12.8283 13.3426 12.7106 13.7908C15.9953 11.3211 15.4407 8.23113 15.4271 8.127C15.4542 8.16548 15.7847 8.56163 15.9545 8.77442C16.4842 3.33243 12.0337 1.57578 12.0337 1.57578ZM6.97659 10.2662C6.92452 10.3319 6.70041 10.5311 6.54195 10.676C6.38349 10.8208 6.21145 10.9657 6.08015 11.0993C6.02809 11.1513 5.92169 11.1785 5.76323 11.1785C5.71116 11.1785 5.65684 11.1785 5.61835 11.1785C5.59119 11.1785 5.56629 11.1785 5.53912 11.1785C5.51196 11.1785 5.49837 11.1785 5.48706 11.1785C5.44631 11.1785 5.40783 11.1785 5.36708 11.1785C5.56629 10.9136 6.1458 10.307 6.34501 10.1757C6.5827 10.0172 6.70268 9.85875 6.55553 9.58257C6.41066 9.30414 6.02809 9.37205 6.02809 9.37205C6.02809 9.37205 6.2522 9.27923 6.4514 9.27923C6.20013 9.21359 5.88321 9.27923 5.73833 9.42411C5.57987 9.56899 5.60703 10.0851 5.54139 10.4134C5.47574 10.7574 5.25163 10.9295 4.90754 11.2464C4.72192 11.4185 4.59062 11.4705 4.48423 11.4705C4.26012 11.432 3.99526 11.3641 3.80964 11.2985C3.67834 11.1264 3.47913 10.5582 3.42707 10.3205C3.46555 10.1893 3.62401 9.91081 3.70324 9.75235C3.8617 9.44901 3.95452 9.27697 3.98168 9.11851C4.03375 8.8944 4.20579 7.50674 4.27144 6.92723C4.44348 7.15133 4.68117 7.52258 4.62684 7.76028C5.00941 7.21924 4.73324 6.68953 4.59968 6.47901C4.48196 6.26848 4.3235 5.84516 4.4548 5.39695C4.58609 4.94873 5.06148 3.70595 5.06148 3.70595C5.06148 3.70595 5.21994 3.98438 5.44405 3.93005C5.66815 3.87799 7.47687 1.15699 7.47687 1.15699C7.47687 1.15699 7.96583 2.22547 7.44971 3.00645C6.92226 3.78518 6.40613 3.93005 6.40613 3.93005C6.40613 3.93005 7.13278 4.06135 7.80511 3.57239C8.08128 4.21981 8.34614 4.89214 8.35972 4.98495C8.31897 5.07776 7.79153 6.34545 7.73946 6.42468C7.7123 6.45184 7.52894 6.50391 7.39538 6.53107C7.17127 6.59672 7.03997 6.63747 6.98564 6.67595C6.89283 6.75518 6.46951 7.91647 6.27257 8.48467C6.03488 8.55031 5.79719 8.68388 5.62514 8.94647C5.71796 8.88082 6.00771 8.84007 6.2205 8.81517C6.40613 8.80159 6.97206 9.10493 7.1192 9.67312C7.1192 9.6867 7.1192 9.6867 7.1192 9.70029C7.14863 9.90855 7.08298 10.1078 6.97659 10.2662ZM5.73607 10.4247C5.85604 10.2526 5.84246 9.96288 5.85604 9.87007C5.86963 9.77725 5.89453 9.60521 6.00092 9.58031C6.10732 9.55315 6.35859 9.59389 6.35859 9.77725C6.35859 9.9493 6.17297 9.98778 6.04167 10.1078C5.94659 10.1983 5.76097 10.3975 5.73607 10.4247ZM11.0038 7.90063C11.135 7.2283 11.1486 6.64652 11.1101 6.17114C11.624 6.85705 11.9409 7.6901 12.0337 8.54805C12.0473 8.65445 12.1515 8.75858 12.2579 8.86497C12.3507 8.9442 12.4571 9.0506 12.4571 9.11625C12.4571 9.41959 12.4299 9.72292 12.3778 10.0285C12.3642 10.067 12.2465 10.1349 12.1537 10.187C12.0224 10.2526 11.9025 10.3183 11.8775 10.4247C11.5878 11.4411 10.9653 12.3398 10.1345 12.9736C11.3614 11.6924 11.9545 9.57805 11.0038 7.90063ZM10.173 13.0913C11.0309 12.4303 11.6919 11.5067 11.9817 10.4632C11.9953 10.4247 12.113 10.3568 12.1922 10.3047C12.3235 10.2391 12.4571 10.1598 12.482 10.0534C12.534 9.75009 12.5612 9.43317 12.5612 9.11625C12.5612 8.99853 12.4412 8.87856 12.3235 8.76084C12.2579 8.68161 12.1515 8.5888 12.1515 8.52315C12.0451 7.5588 11.6625 6.64879 11.0694 5.89497C10.8045 4.31036 9.74965 3.8214 9.72248 3.80781C9.74965 3.84856 10.4356 4.83781 9.96017 5.9991C9.47121 7.17397 8.21711 6.99061 8.11071 7.00193C8.00432 7.00193 7.59685 7.52938 7.08072 8.5073C7.01507 8.48014 6.73663 8.41449 6.41971 8.46882C6.6574 7.80781 7.01507 6.87063 7.08072 6.7914C7.10788 6.76424 7.30483 6.71217 7.43839 6.67369C7.68966 6.60804 7.80737 6.56729 7.84812 6.51523C7.87529 6.47448 8.00658 6.17114 8.13788 5.85422C8.25785 5.85422 8.56119 5.82705 8.58609 5.81347C8.61326 5.78631 8.86453 5.14115 8.86453 5.06192C8.86453 4.99627 8.3484 3.715 8.15146 3.22604C8.24427 3.11964 8.33708 2.98834 8.42763 2.84347C11.135 3.13549 13.2494 5.43317 13.2494 8.21755C13.2494 10.3568 11.9953 12.2198 10.173 13.0913Z" fill="#1B314F"/>
<path d="M6.6596 5.96044C6.91087 5.67068 6.77957 5.12965 6.31551 5.03684C6.43549 4.76067 6.60527 4.20605 6.60527 4.20605C6.60527 4.20605 5.25835 6.31811 5.14064 6.35885C5.02066 6.3996 4.90294 5.93554 4.90294 5.93554C4.65167 6.89988 5.32626 7.03118 5.40549 6.72784C5.77448 6.63276 6.40832 6.23661 6.6596 5.96044Z" fill="#1B314F"/>
<path d="M5.50977 6.47419L6.19567 5.29932C6.19567 5.29932 6.59182 5.49852 6.39261 5.81545C6.1436 6.18443 5.50977 6.47419 5.50977 6.47419Z" fill="#FFD923"/>
<path d="M14.0008 11.9162C13.8016 12.181 13.5775 12.4572 13.3149 12.722C15.0173 9.44643 13.3942 6.44926 13.3285 6.33154C13.4485 6.45152 13.5662 6.58282 13.6726 6.70053C14.9788 8.15158 15.1372 10.3315 14.0008 11.9162Z" fill="#D82122"/>
<path d="M15.5861 7.70368C14.9908 6.10549 14.1464 4.74499 12.2856 3.51805C10.4905 2.32959 8.56178 2.42241 8.45539 2.43599C8.44181 2.43599 8.42822 2.43599 8.42822 2.43599C8.49387 2.40882 8.55952 2.39524 8.62517 2.38392C9.0349 2.25263 9.56235 2.14623 10.0921 2.08058C11.4933 1.87911 12.9059 2.35449 13.8702 3.37317C13.8838 3.38675 13.8838 3.38675 13.8974 3.40034C14.993 4.56163 15.5612 6.01268 15.5861 7.70368Z" fill="#D82122"/>
<path d="M11.8614 1.16598C9.89426 0.796992 8.62658 0.980354 7.7143 1.32444C7.68714 1.21805 7.59433 1.00752 7.5151 0.835475C7.24119 1.16598 6.94917 1.56213 6.76581 1.81341C6.26326 2.15749 6.05273 2.488 6.05273 2.488C6.34249 1.49648 7.18912 0.758509 8.21911 0.572883C8.50887 0.520817 8.82579 0.493652 9.16987 0.493652C10.0799 0.507235 10.9899 0.731344 11.8614 1.16598Z" fill="#D82122"/>
<path d="M4.5863 3.70115C3.04244 3.64909 3.55631 1.85169 3.58347 1.74756C3.58347 1.76114 3.68761 3.16012 4.5863 3.70115Z" fill="#D82122"/>
<path d="M6.10496 0.466309C4.91651 1.17938 5.1542 2.8817 5.1542 2.8817C4.01781 1.15448 6.01215 0.507056 6.10496 0.466309Z" fill="#D82122"/>
<path d="M4.15182 4.17658C4.23105 4.24223 4.31029 4.3622 4.21747 4.53425C4.16541 4.62706 4.08618 4.61348 3.9662 4.56141C3.80774 4.48218 2.85697 3.92757 1.99902 3.35938C2.97695 3.70346 3.9662 4.07245 4.12466 4.15168C4.12466 4.15168 4.13824 4.16526 4.15182 4.17658Z" fill="white"/>
</g>
<defs>
<clipPath id="clip0">
<rect width="16" height="15.0583" fill="white"/>
</clipPath>
</defs>
</svg>
