<svg width="208" height="56" viewBox="0 0 208 56" fill="none" xmlns="http://www.w3.org/2000/svg">
  <path fill-rule="evenodd" clip-rule="evenodd" d="M45.2199 19.7014C41.2506 15.7321 34.8151 15.7321 30.8459 19.7014L26.7623 23.7849L30.3558 27.3784L34.4394 23.2949C36.424 21.3102 39.6417 21.3102 41.6264 23.2949C43.611 25.2795 43.611 28.4973 41.6264 30.4819L37.5429 34.5654L41.1364 38.1589L45.2199 34.0754C49.1892 30.1061 49.1892 23.6707 45.2199 19.7014ZM33.9493 30.9719L33.9493 41.7524L44.7299 41.7524L33.9493 30.9719Z" fill="#ABDA02"/>
  <path d="M26.7617 13.004H15.9811L26.7617 23.7845V13.004Z" fill="#0F0A1E"/>
  <path d="M15.4911 20.6811C11.5218 24.6503 11.5218 31.0858 15.4911 35.0551C19.4604 39.0244 25.8959 39.0244 29.8651 35.0551L33.9487 30.9716L30.3552 27.378L26.2716 31.4616C24.287 33.4462 21.0693 33.4462 19.0846 31.4616C17.1 29.4769 17.1 26.2592 19.0846 24.2746L23.1682 20.191L19.5747 16.5975L15.4911 20.6811Z" fill="#0F0A1E"/>
  <path d="M110.887 31.7753H104.862C104.835 33.5194 105.153 35.0257 105.813 36.2942C106.474 37.5626 107.359 38.6065 108.469 39.4257C109.605 40.2449 110.9 40.8395 112.354 41.2095C113.834 41.6059 115.353 41.8041 116.912 41.8041C118.841 41.8041 120.533 41.5794 121.986 41.1302C123.466 40.6809 124.695 40.0599 125.673 39.2671C126.677 38.4479 127.43 37.4834 127.932 36.3735C128.434 35.2635 128.685 34.0612 128.685 32.7663C128.685 31.1807 128.342 29.8858 127.655 28.8816C126.994 27.851 126.201 27.0317 125.276 26.4239C124.351 25.8161 123.413 25.3801 122.462 25.1158C121.537 24.8251 120.81 24.6269 120.282 24.5212C118.511 24.072 117.071 23.702 115.961 23.4113C114.877 23.1206 114.019 22.83 113.384 22.5393C112.777 22.2486 112.367 21.9315 112.156 21.5879C111.944 21.2444 111.838 20.7951 111.838 20.2402C111.838 19.6324 111.971 19.1303 112.235 18.7339C112.499 18.3375 112.829 18.0072 113.226 17.7429C113.649 17.4786 114.111 17.2936 114.613 17.1879C115.115 17.0822 115.617 17.0294 116.119 17.0294C116.886 17.0294 117.586 17.0954 118.22 17.2276C118.881 17.3597 119.462 17.5843 119.965 17.9014C120.467 18.2186 120.863 18.6546 121.154 19.2095C121.471 19.7645 121.656 20.4648 121.709 21.3104H127.734C127.734 19.672 127.417 18.2846 126.783 17.1483C126.175 15.9855 125.342 15.0342 124.285 14.2943C123.228 13.5543 122.013 13.0258 120.638 12.7087C119.291 12.3651 117.877 12.1934 116.397 12.1934C115.129 12.1934 113.86 12.3651 112.592 12.7087C111.323 13.0522 110.187 13.5807 109.183 14.2943C108.178 15.0078 107.359 15.9063 106.725 16.9897C106.117 18.0468 105.813 19.302 105.813 20.7555C105.813 22.0504 106.051 23.1603 106.527 24.0852C107.029 24.9837 107.676 25.7369 108.469 26.3447C109.262 26.9525 110.16 27.4546 111.165 27.851C112.169 28.2209 113.199 28.538 114.256 28.8023C115.287 29.093 116.304 29.3573 117.309 29.5951C118.313 29.8329 119.211 30.1104 120.004 30.4275C120.797 30.7446 121.431 31.141 121.907 31.6167C122.409 32.0924 122.66 32.7134 122.66 33.4798C122.66 34.1933 122.475 34.7879 122.105 35.2635C121.735 35.7128 121.273 36.0695 120.718 36.3338C120.163 36.5981 119.568 36.7831 118.934 36.8888C118.3 36.968 117.705 37.0077 117.15 37.0077C116.331 37.0077 115.538 36.9152 114.772 36.7302C114.005 36.5188 113.332 36.2149 112.75 35.8185C112.195 35.3957 111.746 34.8539 111.402 34.1933C111.059 33.5326 110.887 32.7266 110.887 31.7753Z" fill="#0F0A1E"/>
  <path d="M155.022 41.1698L161.484 20.6762H155.696L151.93 34.55H151.851L148.363 20.6762H142.893L139.484 34.5897H139.404L135.639 20.6762H129.693L136.193 41.1698H142.02L145.509 27.4149H145.588L149.235 41.1698H155.022Z" fill="#0F0A1E"/>
  <path d="M163.444 26.9789C163.523 25.6576 163.853 24.5609 164.435 23.6888C165.016 22.8167 165.756 22.1164 166.655 21.5879C167.553 21.0594 168.557 20.6894 169.667 20.478C170.804 20.2402 171.94 20.1213 173.076 20.1213C174.107 20.1213 175.151 20.2005 176.208 20.3591C177.265 20.4912 178.229 20.7687 179.101 21.1915C179.973 21.6143 180.687 22.2089 181.242 22.9753C181.797 23.7152 182.074 24.7062 182.074 25.9483V36.6113C182.074 37.5362 182.127 38.4215 182.233 39.2671C182.339 40.1128 182.524 40.747 182.788 41.1698H177.08C176.974 40.8527 176.882 40.5356 176.802 40.2185C176.749 39.8749 176.71 39.5314 176.683 39.1879C175.785 40.1128 174.728 40.7602 173.512 41.1302C172.297 41.5002 171.055 41.6851 169.786 41.6851C168.808 41.6851 167.897 41.5662 167.051 41.3284C166.205 41.0906 165.465 40.7206 164.831 40.2185C164.197 39.7164 163.695 39.0822 163.325 38.3158C162.981 37.5494 162.81 36.6377 162.81 35.5807C162.81 34.4179 163.008 33.4666 163.404 32.7266C163.827 31.9603 164.355 31.3524 164.99 30.9032C165.65 30.454 166.39 30.1236 167.21 29.9122C168.055 29.6744 168.901 29.4894 169.746 29.3573C170.592 29.2251 171.425 29.1194 172.244 29.0401C173.063 28.9609 173.79 28.8419 174.424 28.6834C175.058 28.5248 175.56 28.3002 175.93 28.0095C176.3 27.6924 176.472 27.2432 176.446 26.6618C176.446 26.054 176.34 25.5783 176.128 25.2348C175.943 24.8648 175.679 24.5873 175.336 24.4023C175.019 24.1909 174.635 24.0588 174.186 24.0059C173.763 23.9267 173.301 23.887 172.799 23.887C171.689 23.887 170.817 24.1248 170.183 24.6005C169.548 25.0762 169.178 25.869 169.073 26.9789H163.444ZM176.446 31.141C176.208 31.3524 175.904 31.5242 175.534 31.6564C175.19 31.7621 174.807 31.8546 174.384 31.9338C173.988 32.0131 173.565 32.0792 173.116 32.132C172.667 32.1849 172.217 32.2509 171.768 32.3302C171.345 32.4095 170.922 32.5152 170.5 32.6473C170.103 32.7795 169.746 32.9645 169.429 33.2023C169.139 33.4137 168.901 33.6912 168.716 34.0347C168.531 34.3783 168.438 34.8143 168.438 35.3428C168.438 35.8449 168.531 36.2677 168.716 36.6113C168.901 36.9548 169.152 37.2323 169.469 37.4437C169.786 37.6287 170.156 37.7608 170.579 37.8401C171.002 37.9194 171.438 37.959 171.887 37.959C172.997 37.959 173.856 37.7741 174.464 37.4041C175.071 37.0341 175.521 36.5981 175.811 36.096C176.102 35.5674 176.274 35.0389 176.327 34.5104C176.406 33.9819 176.446 33.559 176.446 33.2419V31.141Z" fill="#0F0A1E"/>
  <path d="M196.591 37.4834C195.693 37.4834 194.926 37.2984 194.292 36.9284C193.658 36.5584 193.142 36.0828 192.746 35.5014C192.376 34.8936 192.099 34.1933 191.914 33.4005C191.755 32.6077 191.676 31.8017 191.676 30.9825C191.676 30.1368 191.755 29.3176 191.914 28.5248C192.072 27.732 192.336 27.0317 192.706 26.4239C193.103 25.8161 193.605 25.3272 194.213 24.9573C194.847 24.5609 195.627 24.3627 196.551 24.3627C197.45 24.3627 198.203 24.5609 198.811 24.9573C199.445 25.3272 199.96 25.8293 200.357 26.4636C200.753 27.0714 201.031 27.7717 201.189 28.5645C201.374 29.3573 201.467 30.1633 201.467 30.9825C201.467 31.8017 201.387 32.6077 201.229 33.4005C201.07 34.1933 200.793 34.8936 200.396 35.5014C200.027 36.0828 199.524 36.5584 198.89 36.9284C198.282 37.2984 197.516 37.4834 196.591 37.4834ZM186.245 20.6762V48.3446H191.874V38.6329H191.953C192.64 39.6371 193.512 40.4035 194.569 40.932C195.653 41.4341 196.829 41.6851 198.097 41.6851C199.604 41.6851 200.912 41.3945 202.022 40.8131C203.158 40.2317 204.096 39.4521 204.836 38.4743C205.602 37.4966 206.171 36.3735 206.541 35.105C206.911 33.8365 207.096 32.5152 207.096 31.141C207.096 29.6876 206.911 28.3002 206.541 26.9789C206.171 25.6311 205.602 24.4552 204.836 23.451C204.07 22.4468 203.105 21.6408 201.942 21.033C200.78 20.4252 199.392 20.1213 197.78 20.1213C196.512 20.1213 195.349 20.3723 194.292 20.8744C193.235 21.3765 192.363 22.1825 191.676 23.2924H191.597V20.6762H186.245Z" fill="#0F0A1E"/>
  <path d="M74.0477 30.8634C74.0477 31.709 73.9684 32.5283 73.8099 33.321C73.6513 34.1138 73.387 34.8273 73.0171 35.4616C72.6471 36.0694 72.145 36.5583 71.5108 36.9282C70.903 37.2982 70.1366 37.4832 69.2117 37.4832C68.3396 37.4832 67.5865 37.2982 66.9522 36.9282C66.3444 36.5318 65.8291 36.0297 65.4063 35.4219C65.0099 34.7877 64.7192 34.0742 64.5342 33.2814C64.3492 32.4886 64.2567 31.6958 64.2567 30.903C64.2567 30.0574 64.336 29.2514 64.4946 28.485C64.6796 27.6922 64.957 26.9919 65.327 26.3841C65.7234 25.7763 66.2387 25.2874 66.8729 24.9175C67.5072 24.5475 68.2868 24.3625 69.2117 24.3625C70.1366 24.3625 70.903 24.5475 71.5108 24.9175C72.1186 25.2874 72.6075 25.7763 72.9774 26.3841C73.3738 26.9655 73.6513 27.6526 73.8099 28.4454C73.9684 29.2118 74.0477 30.0178 74.0477 30.8634ZM74.127 38.5535V41.1697H79.4783V12.8671H73.8495V23.1733H73.7702C73.136 22.1691 72.2639 21.416 71.154 20.9139C70.0705 20.3854 68.921 20.1211 67.7054 20.1211C66.1991 20.1211 64.8778 20.425 63.7414 21.0328C62.6051 21.6142 61.6537 22.3938 60.8874 23.3715C60.1474 24.3493 59.5793 25.4856 59.1829 26.7805C58.8129 28.049 58.6279 29.3703 58.6279 30.7445C58.6279 32.1715 58.8129 33.5457 59.1829 34.867C59.5793 36.1883 60.1474 37.3643 60.8874 38.3949C61.6537 39.3991 62.6183 40.2051 63.7811 40.8129C64.9438 41.3943 66.2916 41.685 67.8243 41.685C69.172 41.685 70.3744 41.4471 71.4315 40.9715C72.515 40.4694 73.387 39.6634 74.0477 38.5535H74.127Z" fill="#ABDA02"/>
  <path d="M97.3291 28.7229H88.1724C88.1988 28.3265 88.2781 27.8772 88.4102 27.3751C88.5688 26.873 88.8198 26.3973 89.1634 25.9481C89.5333 25.4989 90.009 25.1289 90.5904 24.8382C91.1982 24.5211 91.9513 24.3625 92.8498 24.3625C94.224 24.3625 95.2414 24.7325 95.9021 25.4724C96.5891 26.2124 97.0648 27.2958 97.3291 28.7229ZM88.1724 32.2904H102.958C103.064 30.7048 102.931 29.1853 102.562 27.7319C102.192 26.2784 101.584 24.9835 100.738 23.8472C99.9189 22.7109 98.8618 21.8124 97.5669 21.1517C96.272 20.4646 94.7525 20.1211 93.0084 20.1211C91.4492 20.1211 90.0222 20.3986 88.7273 20.9535C87.4589 21.5085 86.3622 22.2748 85.4372 23.2526C84.5123 24.204 83.7988 25.3403 83.2967 26.6616C82.7946 27.9829 82.5436 29.41 82.5436 30.9427C82.5436 32.5283 82.7814 33.9817 83.2571 35.303C83.7592 36.6243 84.4595 37.7607 85.358 38.712C86.2565 39.6634 87.3531 40.4033 88.648 40.9318C89.9429 41.4339 91.3964 41.685 93.0084 41.685C95.3339 41.685 97.3159 41.1565 98.9543 40.0994C100.593 39.0424 101.808 37.285 102.601 34.8274H97.6462C97.4612 35.4616 96.9591 36.0694 96.1399 36.6508C95.3207 37.2057 94.3429 37.4832 93.2066 37.4832C91.621 37.4832 90.4054 37.0736 89.5597 36.2544C88.7141 35.4352 88.2516 34.1138 88.1724 32.2904Z" fill="#ABDA02"/>
</svg>
