<svg width="50" height="9" viewBox="0 0 50 9" fill="none" xmlns="http://www.w3.org/2000/svg">
  <g>
    <path fill-rule="evenodd" clip-rule="evenodd" d="M13.8199 8.47847C11.4317 9.31523 7.47251 9.13376 4.90383 8.01472C2.33516 6.89569 0 5.5851 0 3.45793C0 1.33075 2.67482 0.675455 3.95916 0.544396C4.6286 0.476084 5.23748 0.489941 5.75575 0.501737C6.23178 0.51257 6.63135 0.521664 6.93118 0.463745C6.95511 0.459122 6.98056 0.454176 7.00751 0.448937C7.68591 0.317073 9.31716 0 11.6652 0C14.1065 0 15.9958 0.443582 15.9958 2.86312L15.9998 5.37339C15.9856 6.81213 15.7674 7.79613 13.8199 8.47847ZM13.6925 3.69988C13.2255 4.03929 11.5845 4.90763 8.75685 5.66576C5.22227 6.61341 3.01449 5.696 2.36701 5.12136C1.71953 4.54672 1.67708 3.59907 3.14186 2.5506C4.60664 1.50213 6.51722 0.735945 9.10712 1.52229C11.179 2.15138 13.0274 3.23614 13.6925 3.69988Z" fill="#596076"/>
    <path d="M13.82 8.47854C11.4318 9.31529 7.4726 9.13383 4.90393 8.01479C3.05172 7.20788 1.32093 6.30138 0.499512 5.06094C1.65702 6.43201 4.4369 7.1982 10.296 5.66582C14.9833 4.43992 15.9304 2.53386 15.818 1.73407C15.934 2.05172 15.9959 2.42506 15.9959 2.86319L15.9999 5.37346C15.9857 6.8122 15.7675 7.7962 13.82 8.47854Z" fill="#596076"/>
    <path fill-rule="evenodd" clip-rule="evenodd" d="M9.10708 1.52234L9.10712 1.52228C8.18367 1.18623 6.68673 0.653167 4.34308 0.749948C1.41352 0.870925 -0.0291986 2.48422 0.435196 4.18378C0.672799 5.05327 2.20096 6.58746 6.41007 6.0584C4.23776 6.1862 2.8564 5.55583 2.36688 5.12138C1.71941 4.54674 1.67695 3.59909 3.14173 2.55062C4.60651 1.50215 6.51709 0.735963 9.10699 1.52231C9.10702 1.52232 9.10705 1.52233 9.10708 1.52234Z" fill="url(#paint0_linear_18713_31493)"/>
    <path fill-rule="evenodd" clip-rule="evenodd" d="M14.6637 0.482178C14.7463 0.522787 14.8257 0.566563 14.9017 0.613717C15.4992 1.01617 15.6882 1.7622 15.1573 2.44985C14.6903 3.0547 13.9862 3.53522 13.6926 3.69992C13.0273 3.23615 11.1791 2.15143 9.10719 1.52237C9.03777 1.50129 8.96884 1.48133 8.90039 1.46246C9.21114 1.27235 9.59766 1.08705 10.073 0.927561C11.9855 0.285872 13.8878 0.146878 14.6637 0.482178Z" fill="url(#paint1_linear_18713_31493)"/>
    <path fill-rule="evenodd" clip-rule="evenodd" d="M42.4804 0.823809L42.2505 0.613125C42.1712 0.540463 42.0664 0.5 41.9575 0.5H41.5292C41.2931 0.5 41.1018 0.68625 41.1018 0.916V8.08239C41.1018 8.31214 41.2931 8.49839 41.5292 8.49839H42.0985C42.3345 8.49839 42.5259 8.31214 42.5259 8.08239V3.59232C42.5259 3.22845 42.972 3.03993 43.2451 3.28838L44.4468 4.38146C44.6018 4.52247 44.8396 4.53144 45.0054 4.40253L45.3771 4.11345C45.5807 3.95515 45.5926 3.65793 45.4023 3.48467L42.4804 0.823809Z" fill="#596076"/>
    <path fill-rule="evenodd" clip-rule="evenodd" d="M48.6214 8.17458L48.8513 8.38527C48.9306 8.45793 49.0354 8.49839 49.1443 8.49839H49.5726C49.8086 8.49839 50 8.31214 50 8.08239V0.916002C50 0.686252 49.8086 0.500002 49.5726 0.500002H49.0033C48.7673 0.500002 48.5759 0.686252 48.5759 0.916002V5.40608C48.5759 5.76995 48.1298 5.95846 47.8567 5.71001L46.655 4.61693C46.5 4.47592 46.2622 4.46695 46.0964 4.59586L45.7247 4.88494C45.5211 5.04324 45.5092 5.34046 45.6995 5.51372L48.6214 8.17458Z" fill="#596076"/>
    <path fill-rule="evenodd" clip-rule="evenodd" d="M32.7828 0.5C33.0188 0.5 33.2102 0.68625 33.2102 0.916V8.08239C33.2102 8.31214 33.0188 8.49839 32.7828 8.49839H32.2135C31.9774 8.49839 31.7861 8.31214 31.7861 8.08239V0.916C31.7861 0.68625 31.9774 0.5 32.2135 0.5H32.7828Z" fill="#596076"/>
    <path fill-rule="evenodd" clip-rule="evenodd" d="M34.0837 7.65063C34.0837 7.42088 34.275 7.23463 34.5111 7.23463H37.9286C38.1646 7.23463 38.356 7.42088 38.356 7.65063V8.08239C38.356 8.31214 38.1646 8.49839 37.9286 8.49839H34.5111C34.275 8.49839 34.0837 8.31214 34.0837 8.08239V7.65063Z" fill="#596076"/>
    <path fill-rule="evenodd" clip-rule="evenodd" d="M20.997 2.42C21.233 2.42 21.4244 2.60625 21.4244 2.836V6.164C21.4244 6.39375 21.233 6.58 20.997 6.58H20.4274C20.1914 6.58 20 6.39375 20 6.164V2.836C20 2.60625 20.1914 2.42 20.4274 2.42H20.997Z" fill="#596076"/>
    <path fill-rule="evenodd" clip-rule="evenodd" d="M20 0.91761C20 0.687859 20.1914 0.501609 20.4274 0.501609H24.5347C25.8747 0.501609 27.0318 0.824964 27.85 1.53782C28.6648 2.2477 29.0437 3.25714 29.0437 4.45884V4.53345C29.0437 5.80632 28.6274 6.82302 27.7875 7.51882C26.9504 8.21238 25.7972 8.5 24.5347 8.5H20.4274C20.1914 8.5 20 8.31375 20 8.084V7.71624C20 7.48649 20.1914 7.30024 20.4274 7.30024H24.5347C25.5526 7.30024 26.2979 7.07027 26.7891 6.66337C27.2775 6.2587 27.6196 5.59207 27.6196 4.53345V4.45884C27.6196 3.45961 27.3066 2.79037 26.8262 2.37181C26.3492 1.95622 25.6079 1.70137 24.5347 1.70137H20.4274C20.1914 1.70137 20 1.51512 20 1.28537V0.91761Z" fill="#596076"/>
  </g>
  <defs>
    <linearGradient id="paint0_linear_18713_31493" x1="7.70499" y1="1.5877" x2="1.14104" y2="8.28451" gradientUnits="userSpaceOnUse">
      <stop stop-color="#596076"/>
      <stop offset="1" stop-color="#596076" stop-opacity="0"/>
    </linearGradient>
    <linearGradient id="paint1_linear_18713_31493" x1="15.398" y1="3.37506" x2="14.8116" y2="0.481343" gradientUnits="userSpaceOnUse">
      <stop stop-color="#596076"/>
      <stop offset="1" stop-color="#596076" stop-opacity="0"/>
    </linearGradient>
  </defs>
</svg>
